<svg id="Simbolo" xmlns="http://www.w3.org/2000/svg" width="678.399" height="499.996" viewBox="0 0 289 213">
  <defs>
    <style>
      .cls-1, .cls-2 {
        fill: #fefefe;
      }

      .cls-1 {
        stroke: #3f3f3f;
        stroke-linecap: square;
        stroke-width: 2.51px;
        stroke-dasharray: 0.001 5.02;
      }

      .cls-1, .cls-2, .cls-3, .cls-4, .cls-5 {
        fill-rule: evenodd;
      }

      .cls-3 {
        fill: #3f3f3f;
      }

      .cls-4 {
        fill: #dcbebc;
      }

      .cls-5 {
        fill: #f6f6f5;
      }
    </style>
  </defs>
  <path id="Retângulo_1" data-name="Retângulo 1" class="cls-1" d="M83.084,38.354H205.4a50,50,0,0,1,50,50v63.469a50,50,0,0,1-50,50H83.084a50,50,0,0,1-50-50V88.354A50,50,0,0,1,83.084,38.354Z"/>
  <path id="Retângulo_5_copiar" data-name="Retângulo 5 copiar" class="cls-2" d="M16.647,37.506l34.2-29.844a10,10,0,0,1,14.11.959L90.5,37.891A10,10,0,0,1,89.538,52l-34.2,29.844a10,10,0,0,1-14.109-.959L15.688,51.616A10,10,0,0,1,16.647,37.506Z"/>
  <path id="Retângulo_2" data-name="Retângulo 2" class="cls-3" d="M70.028,101.085h5.425a16.9,16.9,0,0,1,16.9,16.9v5.425a16.9,16.9,0,0,1-16.9,16.9H70.028a16.9,16.9,0,0,1-16.9-16.9v-5.425A16.9,16.9,0,0,1,70.028,101.085Z"/>
  <path id="Retângulo_6" data-name="Retângulo 6" class="cls-3" d="M44.663,37.415l8.555-2.906A10,10,0,0,1,65.9,40.761l1.671,4.918a10,10,0,0,1-6.252,12.685L52.767,61.27a10,10,0,0,1-12.685-6.252L38.411,50.1A10,10,0,0,1,44.663,37.415Z"/>
  <path id="Retângulo_2_copiar" data-name="Retângulo 2 copiar" class="cls-3" d="M213.457,101.085h5.425a16.905,16.905,0,0,1,16.9,16.9v5.425a16.9,16.9,0,0,1-16.9,16.9h-5.425a16.9,16.9,0,0,1-16.9-16.9v-5.425A16.9,16.9,0,0,1,213.457,101.085Z"/>
  <path id="Retângulo_3" data-name="Retângulo 3" class="cls-4" d="M24.737,140.318H34.892a11.269,11.269,0,0,1,11.269,11.269V155.2a11.269,11.269,0,0,1-11.269,11.269H24.737A11.269,11.269,0,0,1,13.468,155.2v-3.617A11.269,11.269,0,0,1,24.737,140.318Z"/>
  <path id="Retângulo_3_copiar" data-name="Retângulo 3 copiar" class="cls-4" d="M247.055,140.318H257.21a11.269,11.269,0,0,1,11.269,11.269V155.2a11.269,11.269,0,0,1-11.269,11.269H247.055A11.269,11.269,0,0,1,235.786,155.2v-3.617A11.269,11.269,0,0,1,247.055,140.318Z"/>
  <path id="Retângulo_4" data-name="Retângulo 4" class="cls-5" d="M89.644,127.24H199.689a16.9,16.9,0,0,1,16.9,16.9v5.425a16.9,16.9,0,0,1-16.9,16.9H89.644a16.9,16.9,0,0,1-16.9-16.9v-5.425A16.9,16.9,0,0,1,89.644,127.24Z"/>
  <path id="Retângulo_4_copiar_2" data-name="Retângulo 4 copiar 2" class="cls-5" d="M108.837,153.4h70.812a16.9,16.9,0,0,1,16.9,16.905v5.424a16.9,16.9,0,0,1-16.9,16.9H108.837a16.9,16.9,0,0,1-16.9-16.9V170.3A16.9,16.9,0,0,1,108.837,153.4Z"/>
  <path id="Retângulo_4_copiar" data-name="Retângulo 4 copiar" class="cls-3" d="M128.414,127.24h31.58a16.905,16.905,0,0,1,16.9,16.9v5.425a16.9,16.9,0,0,1-16.9,16.9h-31.58a16.9,16.9,0,0,1-16.9-16.9v-5.425A16.9,16.9,0,0,1,128.414,127.24Z"/>
  <path id="Retângulo_5_copiar_2" data-name="Retângulo 5 copiar 2" class="cls-3" d="M239.863,4.67l41.176,19.093A10,10,0,0,1,285.9,37.042L269.561,72.286a10,10,0,0,1-13.278,4.865L215.106,58.058a10,10,0,0,1-4.865-13.279L226.584,9.535A10,10,0,0,1,239.863,4.67Z"/>
  <path id="Retângulo_5" data-name="Retângulo 5" class="cls-2" d="M233.863,4.67l41.176,19.093A10,10,0,0,1,279.9,37.042L263.561,72.286a10,10,0,0,1-13.278,4.865L209.106,58.058a10,10,0,0,1-4.865-13.279L220.584,9.535A10,10,0,0,1,233.863,4.67Z"/>
  <path id="Retângulo_6_copiar" data-name="Retângulo 6 copiar" class="cls-3" d="M234.287,30.876l8.555-2.906a10,10,0,0,1,12.685,6.252L257.2,39.14a10,10,0,0,1-6.252,12.685l-8.554,2.906a10,10,0,0,1-12.686-6.252l-1.67-4.918A10,10,0,0,1,234.287,30.876Z"/>
</svg>
